<?xml version="1.0" encoding="UTF-8" standalone="no"?>
<!DOCTYPE svg PUBLIC "-//W3C//DTD SVG 1.1//EN"
"http://www.w3.org/Graphics/SVG/1.1/DTD/svg11.dtd">
<svg viewBox="0 0 909 1286" version="1.1" xmlns="http://www.w3.org/2000/svg" xmlns:xlink="http://www.w3.org/1999/xlink">
<defs>
<style type="text/css"><![CDATA[
.g1_6{
fill: #0089C4;
}
]]></style>
</defs>
<path fill-rule="evenodd" d="M145.3,356.1l128.9,0l0,-29.8l-128.9,0l0,29.8Z" class="g1_6" />
<path fill-rule="evenodd" d="M274.2,356.1l327.1,0l0,-29.8l-327.1,0l0,29.8Z" class="g1_6" />
<path fill-rule="evenodd" d="M145.3,356.1l1.6,0l0,-29.8l-1.6,0l0,29.8Z" class="g1_6" />
<path fill-rule="evenodd" d="M599.6,356.1l1.7,0l0,-29.8l-1.7,0l0,29.8Z" class="g1_6" />
<path fill-rule="evenodd" d="M145.3,506.2l1.6,0l0,-150.1l-1.6,0l0,150.1Z" class="g1_6" />
<path fill-rule="evenodd" d="M599.6,506.2l1.7,0l0,-150.1l-1.7,0l0,150.1Z" class="g1_6" />
<path fill-rule="evenodd" d="M145.3,328l456,0l0,-1.7l-456,0l0,1.7Z" class="g1_6" />
<path fill-rule="evenodd" d="M146.8,356.9l452.9,0l0,-1.6l-452.9,0l0,1.6Z" class="g1_6" />
<path fill-rule="evenodd" d="M145.3,507.7l456,0l0,-1.7l-456,0l0,1.7Z" class="g1_6" />
<path fill-rule="evenodd" d="M64.9,101.7l761.8,0l0,-35.4l-761.8,0l0,35.4Z" class="g1_6" />
<path fill-rule="evenodd" d="M144.3,582.8l132.8,0l0,-29.8l-132.8,0l0,29.8Z" class="g1_6" />
<path fill-rule="evenodd" d="M277.1,582.8l324.8,0l0,-29.8l-324.8,0l0,29.8Z" class="g1_6" />
<path fill-rule="evenodd" d="M144.3,582.8l1.7,0L146,553l-1.7,0l0,29.8Z" class="g1_6" />
<path fill-rule="evenodd" d="M600.3,582.8l1.6,0l0,-29.8l-1.6,0l0,29.8Z" class="g1_6" />
<path fill-rule="evenodd" d="M144.3,735.4l1.7,0l0,-152.6l-1.7,0l0,152.6Z" class="g1_6" />
<path fill-rule="evenodd" d="M600.3,735.4l1.6,0l0,-152.6l-1.6,0l0,152.6Z" class="g1_6" />
<path fill-rule="evenodd" d="M144.3,554.7l457.6,0l0,-1.7l-457.6,0l0,1.7Z" class="g1_6" />
<path fill-rule="evenodd" d="M145.8,583.7l454.6,0l0,-1.7l-454.6,0l0,1.7Z" class="g1_6" />
<path fill-rule="evenodd" d="M144.3,736.9l457.6,0l0,-1.6l-457.6,0l0,1.6Z" class="g1_6" />
<path fill-rule="evenodd" d="M144.5,806.1l137.1,0l0,-29.7l-137.1,0l0,29.7Z" class="g1_6" />
<path fill-rule="evenodd" d="M281.6,806.1l320.4,0l0,-29.7l-320.4,0l0,29.7Z" class="g1_6" />
<path fill-rule="evenodd" d="M144.5,806.1l1.7,0l0,-29.7l-1.7,0l0,29.7Z" class="g1_6" />
<path fill-rule="evenodd" d="M600.4,806.1l1.6,0l0,-29.7l-1.6,0l0,29.7Z" class="g1_6" />
<path fill-rule="evenodd" d="M144.5,954.8l1.7,0l0,-148.7l-1.7,0l0,148.7Z" class="g1_6" />
<path fill-rule="evenodd" d="M600.4,954.8l1.6,0l0,-148.7l-1.6,0l0,148.7Z" class="g1_6" />
<path fill-rule="evenodd" d="M144.5,778L602,778l0,-1.6l-457.5,0l0,1.6Z" class="g1_6" />
<path fill-rule="evenodd" d="M146,807l454.5,0l0,-1.6l-454.5,0l0,1.6Z" class="g1_6" />
<path fill-rule="evenodd" d="M144.5,956.3l457.5,0l0,-1.7l-457.5,0l0,1.7Z" class="g1_6" />
<path fill-rule="evenodd" d="M141.7,1017.4l133.1,0l0,-29.8l-133.1,0l0,29.8Z" class="g1_6" />
<path fill-rule="evenodd" d="M274.8,1017.4l324.9,0l0,-29.8l-324.9,0l0,29.8Z" class="g1_6" />
<path fill-rule="evenodd" d="M141.7,1017.4l1.7,0l0,-29.8l-1.7,0l0,29.8Z" class="g1_6" />
<path fill-rule="evenodd" d="M598.1,1017.4l1.6,0l0,-29.8l-1.6,0l0,29.8Z" class="g1_6" />
<path fill-rule="evenodd" d="M141.7,1170.6l1.7,0l0,-153.2l-1.7,0l0,153.2Z" class="g1_6" />
<path fill-rule="evenodd" d="M598.1,1170.6l1.6,0l0,-153.2l-1.6,0l0,153.2Z" class="g1_6" />
<path fill-rule="evenodd" d="M141.7,989.3l458,0l0,-1.7l-458,0l0,1.7Z" class="g1_6" />
<path fill-rule="evenodd" d="M143.3,1018.2l454.9,0l0,-1.6l-454.9,0l0,1.6Z" class="g1_6" />
<path fill-rule="evenodd" d="M141.7,1172.1l458,0l0,-1.6l-458,0l0,1.6Z" class="g1_6" />
<path fill-rule="evenodd" d="M149.3,153.1l141.1,0l0,-26.6l-141.1,0l0,26.6Z" class="g1_6" />
<path fill-rule="evenodd" d="M290.4,153.1l160.2,0l0,-26.6l-160.2,0l0,26.6Z" class="g1_6" />
<path fill-rule="evenodd" d="M450.6,153.1l147.6,0l0,-26.6l-147.6,0l0,26.6Z" class="g1_6" />
<path fill-rule="evenodd" d="M149.3,153.1l1,0l0,-26.6l-1,0l0,26.6Z" class="g1_6" />
<path fill-rule="evenodd" d="M290,152.7l0.9,0l0,-25.4l-0.9,0l0,25.4Z" class="g1_6" />
<path fill-rule="evenodd" d="M450.2,152.7l0.9,0l0,-25.4l-0.9,0l0,25.4Z" class="g1_6" />
<path fill-rule="evenodd" d="M597.3,153.1l0.9,0l0,-26.6l-0.9,0l0,26.6Z" class="g1_6" />
<path fill-rule="evenodd" d="M149.3,311.1l1,0l0,-158l-1,0l0,158Z" class="g1_6" />
<path fill-rule="evenodd" d="M290,311.1l0.9,0l0,-157.6l-0.9,0l0,157.6Z" class="g1_6" />
<path fill-rule="evenodd" d="M450.2,283.7l0.9,0l0,-130.2l-0.9,0l0,130.2Z" class="g1_6" />
<path fill-rule="evenodd" d="M597.3,311.1l0.9,0l0,-158l-0.9,0l0,158Z" class="g1_6" />
<path fill-rule="evenodd" d="M149.3,127.4l448.9,0l0,-0.9l-448.9,0l0,0.9Z" class="g1_6" />
<path fill-rule="evenodd" d="M150.1,153.6l447.4,0l0,-0.9l-447.4,0l0,0.9Z" class="g1_6" />
<path fill-rule="evenodd" d="M150.1,179.8l300.9,0l0,-0.9l-300.9,0l0,0.9Z" class="g1_6" />
<path fill-rule="evenodd" d="M150.1,206L451,206l0,-0.9l-300.9,0l0,0.9Z" class="g1_6" />
<path fill-rule="evenodd" d="M150.1,232.2l300.9,0l0,-0.9l-300.9,0l0,0.9Z" class="g1_6" />
<path fill-rule="evenodd" d="M150.1,258.4l300.9,0l0,-0.9l-300.9,0l0,0.9Z" class="g1_6" />
<path fill-rule="evenodd" d="M150.1,284.6l447.4,0l0,-0.9l-447.4,0l0,0.9Z" class="g1_6" />
<path fill-rule="evenodd" d="M149.3,311.8l448.9,0l0,-0.9l-448.9,0l0,0.9Z" class="g1_6" />
</svg>