<?xml version="1.0" encoding="UTF-8" standalone="no"?>
<!DOCTYPE svg PUBLIC "-//W3C//DTD SVG 1.1//EN"
"http://www.w3.org/Graphics/SVG/1.1/DTD/svg11.dtd">
<svg viewBox="0 0 909 1286" version="1.1" xmlns="http://www.w3.org/2000/svg" xmlns:xlink="http://www.w3.org/1999/xlink">
<defs>
<clipPath id="c0_5"><path d="M86.3,403.9l0,-36.3l131.9,0l0,36.3Z" /></clipPath>
<clipPath id="c1_5"><path d="M86.8,572.5l0,-33.9l129.4,0l0,33.9Z" /></clipPath>
<style type="text/css"><![CDATA[
.g1_5{
fill: #0089C4;
}
.g2_5{
fill: none;
stroke: #0089C4;
stroke-width: 3.0555556;
stroke-linecap: round;
stroke-linejoin: miter;
}
]]></style>
</defs>
<path fill-rule="evenodd" d="M87.5,115.7l735.2,0l0,-28.7L87.5,87l0,28.7Z" class="g1_5" />
<path fill-rule="evenodd" d="M86.6,301.5l131.9,0l0,-31.7l-131.9,0l0,31.7Z" class="g1_5" />
<path d="M86.6,301.5l131.9,0l0,-31.7l-131.9,0l0,31.7Z" class="g2_5" />
<path fill-rule="evenodd" d="M86.3,403.9l131.9,0l0,-36.3l-131.9,0l0,36.3Z" class="g1_5" />
<g clip-path="url(#c0_5)">
<path d="M86.3,403.9l131.9,0l0,-36.3l-131.9,0l0,36.3Z" class="g2_5" />
</g>
<path fill-rule="evenodd" d="M86.9,470.4l130,0l0,-32.9l-130,0l0,32.9Z" class="g1_5" />
<path d="M86.9,470.4l130,0l0,-32.9l-130,0l0,32.9Z" class="g2_5" />
<path fill-rule="evenodd" d="M86.8,572.5l129.4,0l0,-33.9l-129.4,0l0,33.9Z" class="g1_5" />
<g clip-path="url(#c1_5)">
<path d="M86.8,572.5l129.4,0l0,-33.9l-129.4,0l0,33.9Z" class="g2_5" />
</g>
<path fill-rule="evenodd" d="M85.7,647l130.6,0l0,-31.7l-130.6,0l0,31.7Z" class="g1_5" />
<path d="M85.7,647l130.6,0l0,-31.7l-130.6,0l0,31.7Z" class="g2_5" />
<image preserveAspectRatio="none" x="87" y="745" width="225" height="212" xlink:href="img/1.png" />
<image preserveAspectRatio="none" x="342" y="746" width="226" height="210" xlink:href="img/2.png" />
<image preserveAspectRatio="none" x="598" y="746" width="226" height="210" xlink:href="img/3.png" />
<image preserveAspectRatio="none" x="87" y="983" width="225" height="216" xlink:href="img/4.png" />
<image preserveAspectRatio="none" x="342" y="983" width="226" height="216" xlink:href="img/5.png" />
<image preserveAspectRatio="none" x="598" y="984" width="226" height="215" xlink:href="img/6.png" />
</svg>